<!DOCTYPE svg PUBLIC "-//W3C//DTD SVG 1.1//EN" "http://www.w3.org/Graphics/SVG/1.1/DTD/svg11.dtd">
<!-- Uploaded to: SVG Repo, www.svgrepo.com, Transformed by: SVG Repo Mixer Tools -->
<svg fill="#000000" version="1.1" id="Capa_1" xmlns="http://www.w3.org/2000/svg" xmlns:xlink="http://www.w3.org/1999/xlink" width="800px" height="800px" viewBox="0 0 179.925 179.925" xml:space="preserve">
<g id="SVGRepo_bgCarrier" stroke-width="0"/>
<g id="SVGRepo_tracerCarrier" stroke-linecap="round" stroke-linejoin="round"/>
<g id="SVGRepo_iconCarrier"> <g> <g> <path d="M75.72,51.319c-3.735-4.238-6.59-9.419-5.999-15.114c1.2-11.52,14.05-11.337,20.241-5.775 c6.191-5.562,19.054-5.745,20.241,5.775c0.592,5.695-2.27,10.875-5.999,15.114c10.137-8.118,21.716-20.714,20.209-35.205 c-2.021-19.603-23.909-19.295-34.451-9.83c-10.545-9.466-32.417-9.773-34.451,9.83C54.004,30.604,65.583,43.201,75.72,51.319z"/> <path d="M93.583,72.373v-25.6c0-1.998-1.625-3.626-3.62-3.626c-1.998,0-3.62,1.629-3.62,3.626v25.6 c-28.26-0.73-44.65-9.507-44.65-9.507v117.06h96.541V62.866C138.233,62.86,121.842,71.643,93.583,72.373z"/> </g> </g> </g>
</svg>