<svg width="35" height="47" viewBox="0 0 35 47" fill="none" xmlns="http://www.w3.org/2000/svg">
<path d="M1.5 16.5001C1.5 15.3862 2.0619 14.3179 3.0621 13.5303C4.06229 12.7426 5.41885 12.3001 6.83333 12.3001H28.1667C29.5812 12.3001 30.9377 12.7426 31.9379 13.5303C32.9381 14.3179 33.5 15.3862 33.5 16.5001L31.8621 41.7001C31.8621 42.814 31.3002 43.8823 30.3 44.67C29.2998 45.4576 27.9433 45.9001 26.5288 45.9001L9.23333 45.9C7.81884 45.9 6.46229 45.4575 5.4621 44.6699C4.4619 43.8822 3.9 42.8139 3.9 41.7L1.5 16.5001Z" stroke="#B6B6B6" stroke-width="1.5" stroke-linecap="round" stroke-linejoin="round"/>
<path d="M17.7647 1.09988L20.8896 4.59375C21.4472 5.1932 21.8205 5.94043 21.965 6.74627C22.1096 7.55211 22.0191 8.38252 21.7046 9.13837C21.39 9.89423 20.8646 10.5436 20.1911 11.009C19.5175 11.4744 18.7243 11.7361 17.906 11.763C17.0878 11.7899 16.2791 11.5807 15.5764 11.1605C14.8738 10.7403 14.3069 10.1268 13.9435 9.39321C13.58 8.65962 13.4353 7.83694 13.5266 7.02336C13.618 6.20977 13.9415 5.43965 14.4586 4.80492L17.7647 1.09988Z" stroke="#B6B6B6" stroke-width="1.5" stroke-linecap="round" stroke-linejoin="round"/>
<path d="M3.90039 40.3001H31.9004" stroke="#B6B6B6" stroke-width="1.5"/>
<path d="M20.166 22.4438H20.1749" stroke="#B6B6B6" stroke-width="1.5" stroke-linecap="round" stroke-linejoin="round"/>
<path d="M9.5 20.6665C9.5 19.9592 9.78095 19.2809 10.281 18.7808C10.7811 18.2807 11.4594 17.9998 12.1667 17.9998H22.8333C23.5406 17.9998 24.2189 18.2807 24.719 18.7808C25.219 19.2809 25.5 19.9592 25.5 20.6665V31.3331C25.5 32.0404 25.219 32.7186 24.719 33.2187C24.2189 33.7188 23.5406 33.9998 22.8333 33.9998H12.1667C11.4594 33.9998 10.7811 33.7188 10.281 33.2187C9.78095 32.7186 9.5 32.0404 9.5 31.3331V20.6665Z" stroke="#B6B6B6" stroke-width="1.5" stroke-linecap="round" stroke-linejoin="round"/>
<path d="M9.5 29.5552L13.9444 25.1107C14.7693 24.317 15.7862 24.317 16.6111 25.1107L21.0556 29.5552" stroke="#B6B6B6" stroke-width="1.5" stroke-linecap="round" stroke-linejoin="round"/>
<path d="M19.2754 27.7776L20.1643 26.8887C20.9892 26.095 22.0061 26.095 22.8309 26.8887L25.4976 29.5554" stroke="#B6B6B6" stroke-width="1.5" stroke-linecap="round" stroke-linejoin="round"/>
</svg>
